<svg width="49" height="48" viewBox="0 0 49 48" fill="none" xmlns="http://www.w3.org/2000/svg">
<path d="M42.5 32.84V39.912C42.5002 40.4184 42.3084 40.9059 41.9632 41.2764C41.618 41.6468 41.1451 41.8726 40.64 41.908C39.766 41.968 39.052 42 38.5 42C20.826 42 6.5 27.674 6.5 10C6.5 9.448 6.53 8.734 6.592 7.86C6.62744 7.35489 6.85316 6.88202 7.22361 6.53682C7.59405 6.19161 8.08165 5.99977 8.588 6H15.66C15.9081 5.99975 16.1474 6.09172 16.3315 6.25804C16.5155 6.42436 16.6312 6.65317 16.656 6.9C16.702 7.36 16.744 7.726 16.784 8.004C17.1815 10.7778 17.996 13.4757 19.2 16.006C19.39 16.406 19.266 16.884 18.906 17.14L14.59 20.224C17.2289 26.3729 22.1291 31.2731 28.278 33.912L31.358 29.604C31.4839 29.428 31.6676 29.3018 31.877 29.2473C32.0864 29.1928 32.3083 29.2136 32.504 29.306C35.034 30.5077 37.7312 31.3202 40.504 31.716C40.782 31.756 41.148 31.8 41.604 31.844C41.8505 31.8693 42.0788 31.9851 42.2447 32.1692C42.4106 32.3532 42.5023 32.5922 42.502 32.84H42.5Z" fill="#8A8CCE"/>
</svg>
